<svg width="13" height="13" viewBox="0 0 13 13" fill="none" xmlns="http://www.w3.org/2000/svg">
<path d="M10.14 6.74498V6.2518L10.7757 5.71026C10.8929 5.60971 10.9697 5.47206 10.9928 5.32165C11.0158 5.17124 10.9835 5.01774 10.9015 4.88829L10.1202 3.59893C10.0621 3.50102 9.97863 3.4197 9.8781 3.36313C9.77757 3.30655 9.66353 3.27671 9.54742 3.27659C9.47546 3.27605 9.40389 3.28694 9.33553 3.30882L8.53104 3.57314C8.39214 3.48328 8.24725 3.40251 8.09734 3.33139L7.92849 2.51909C7.89822 2.37068 7.8153 2.23737 7.69425 2.1425C7.5732 2.04762 7.42173 1.99722 7.26636 2.00012H5.71696C5.56159 1.99722 5.41012 2.04762 5.28907 2.1425C5.16802 2.23737 5.0851 2.37068 5.05482 2.51909L4.88598 3.33139C4.73499 3.4025 4.589 3.48326 4.44897 3.57314L3.66102 3.29593C3.59193 3.2784 3.52038 3.27187 3.44914 3.27659C3.33303 3.27671 3.21899 3.30655 3.11846 3.36313C3.01793 3.4197 2.93445 3.50102 2.87639 3.59893L2.09507 4.88829C2.0178 5.01755 1.98908 5.16894 2.01384 5.31655C2.03861 5.46415 2.11531 5.59878 2.23081 5.69737L2.85653 6.25502V6.7482L2.23081 7.28974C2.11205 7.38902 2.03325 7.52605 2.0084 7.67653C1.98355 7.827 2.01426 7.98118 2.09507 8.11171L2.87639 9.40107C2.93445 9.49898 3.01793 9.5803 3.11846 9.63687C3.21899 9.69345 3.33303 9.72329 3.44914 9.72341C3.5211 9.72395 3.59266 9.71306 3.66102 9.69118L4.46552 9.42686C4.60442 9.51672 4.7493 9.59749 4.89922 9.66861L5.06806 10.4809C5.09834 10.6293 5.18126 10.7626 5.30231 10.8575C5.42336 10.9524 5.57483 11.0028 5.7302 10.9999H7.29284C7.44821 11.0028 7.59968 10.9524 7.72073 10.8575C7.84178 10.7626 7.9247 10.6293 7.95498 10.4809L8.12382 9.66861C8.27481 9.5975 8.4208 9.51674 8.56083 9.42686L9.36202 9.69118C9.43038 9.71306 9.50195 9.72395 9.5739 9.72341C9.69002 9.72329 9.80406 9.69345 9.90459 9.63687C10.0051 9.5803 10.0886 9.49898 10.1467 9.40107L10.9015 8.11171C10.9788 7.98245 11.0075 7.83106 10.9827 7.68345C10.958 7.53585 10.8812 7.40122 10.7657 7.30263L10.14 6.74498ZM9.54742 9.07873L8.41185 8.70481C8.14603 8.92404 7.84222 9.09541 7.51466 9.21089L7.2796 10.3681H5.71696L5.4819 9.22378C5.15693 9.10502 4.85476 8.93395 4.58802 8.71771L3.44914 9.07873L2.66782 7.78936L3.56833 7.01575C3.50711 6.68208 3.50711 6.34049 3.56833 6.00682L2.66782 5.21064L3.44914 3.92127L4.5847 4.29519C4.85053 4.07596 5.15434 3.90459 5.4819 3.78911L5.71696 2.63191H7.2796L7.51466 3.77622C7.83963 3.89498 8.14179 4.06605 8.40854 4.28229L9.54742 3.92127L10.3287 5.21064L9.42823 5.98425C9.48945 6.31792 9.48945 6.65951 9.42823 6.99318L10.3287 7.78936L9.54742 9.07873Z" fill="white"/>
<path d="M6.5 8.9375C6.01791 8.9375 5.54664 8.79454 5.1458 8.52671C4.74495 8.25887 4.43253 7.87819 4.24804 7.43279C4.06356 6.9874 4.01529 6.4973 4.10934 6.02447C4.20339 5.55164 4.43554 5.11732 4.77643 4.77643C5.11732 4.43554 5.55164 4.20339 6.02447 4.10934C6.4973 4.01529 6.9874 4.06356 7.43279 4.24804C7.87819 4.43253 8.25887 4.74495 8.52671 5.1458C8.79454 5.54664 8.9375 6.01791 8.9375 6.5C8.94076 6.821 8.87994 7.13943 8.7586 7.43663C8.63725 7.73384 8.45783 8.00384 8.23084 8.23084C8.00384 8.45783 7.73384 8.63725 7.43663 8.7586C7.13943 8.87994 6.821 8.94076 6.5 8.9375V8.9375ZM6.5 4.875C6.28523 4.87 6.07169 4.90861 5.87227 4.9885C5.67285 5.0684 5.49172 5.18791 5.33981 5.33981C5.18791 5.49172 5.0684 5.67285 4.9885 5.87227C4.90861 6.07169 4.87 6.28523 4.875 6.5C4.87 6.71477 4.90861 6.92832 4.9885 7.12773C5.0684 7.32715 5.18791 7.50829 5.33981 7.66019C5.49172 7.81209 5.67285 7.93161 5.87227 8.0115C6.07169 8.09139 6.28523 8.13 6.5 8.125C6.71477 8.13 6.92832 8.09139 7.12773 8.0115C7.32715 7.93161 7.50829 7.81209 7.66019 7.66019C7.81209 7.50829 7.93161 7.32715 8.0115 7.12773C8.09139 6.92832 8.13 6.71477 8.125 6.5C8.13 6.28523 8.09139 6.07169 8.0115 5.87227C7.93161 5.67285 7.81209 5.49172 7.66019 5.33981C7.50829 5.18791 7.32715 5.0684 7.12773 4.9885C6.92832 4.90861 6.71477 4.87 6.5 4.875Z" fill="white"/>
</svg>
