<svg width="13" height="13" viewBox="0 0 13 13" fill="none" xmlns="http://www.w3.org/2000/svg">
<path d="M6.5 3.06875C6.65512 3.06875 6.80873 3.0993 6.95205 3.15867C7.09536 3.21803 7.22558 3.30504 7.33527 3.41473C7.44496 3.52442 7.53197 3.65464 7.59133 3.79796C7.6507 3.94127 7.68125 4.09488 7.68125 4.25C7.68125 4.40512 7.6507 4.55873 7.59133 4.70205C7.53197 4.84536 7.44496 4.97558 7.33527 5.08527C7.22558 5.19496 7.09536 5.28197 6.95205 5.34133C6.80873 5.4007 6.65512 5.43125 6.5 5.43125C6.18671 5.43125 5.88626 5.3068 5.66473 5.08527C5.4432 4.86374 5.31875 4.56329 5.31875 4.25C5.31875 3.93671 5.4432 3.63626 5.66473 3.41473C5.88626 3.1932 6.18671 3.06875 6.5 3.06875M6.5 8.13125C8.17063 8.13125 9.93125 8.9525 9.93125 9.3125V9.93125H3.06875V9.3125C3.06875 8.9525 4.82937 8.13125 6.5 8.13125M6.5 2C5.25687 2 4.25 3.00687 4.25 4.25C4.25 5.49313 5.25687 6.5 6.5 6.5C7.74313 6.5 8.75 5.49313 8.75 4.25C8.75 3.00687 7.74313 2 6.5 2ZM6.5 7.0625C4.99812 7.0625 2 7.81625 2 9.3125V10.4375C2 10.7469 2.25312 11 2.5625 11H10.4375C10.7469 11 11 10.7469 11 10.4375V9.3125C11 7.81625 8.00188 7.0625 6.5 7.0625Z" fill="white"/>
<path d="M6.5 3.06875C6.65512 3.06875 6.80873 3.0993 6.95205 3.15867C7.09536 3.21803 7.22558 3.30504 7.33527 3.41473C7.44496 3.52442 7.53197 3.65464 7.59133 3.79796C7.6507 3.94127 7.68125 4.09488 7.68125 4.25C7.68125 4.40512 7.6507 4.55873 7.59133 4.70205C7.53197 4.84536 7.44496 4.97558 7.33527 5.08527C7.22558 5.19496 7.09536 5.28197 6.95205 5.34133C6.80873 5.4007 6.65512 5.43125 6.5 5.43125C6.18671 5.43125 5.88626 5.3068 5.66473 5.08527C5.4432 4.86374 5.31875 4.56329 5.31875 4.25C5.31875 3.93671 5.4432 3.63626 5.66473 3.41473C5.88626 3.1932 6.18671 3.06875 6.5 3.06875M6.5 8.13125C8.17063 8.13125 9.93125 8.9525 9.93125 9.3125V9.93125H3.06875V9.3125C3.06875 8.9525 4.82937 8.13125 6.5 8.13125M6.5 2C5.25687 2 4.25 3.00687 4.25 4.25C4.25 5.49313 5.25687 6.5 6.5 6.5C7.74313 6.5 8.75 5.49313 8.75 4.25C8.75 3.00687 7.74313 2 6.5 2ZM6.5 7.0625C4.99812 7.0625 2 7.81625 2 9.3125V10.4375C2 10.7469 2.25312 11 2.5625 11H10.4375C10.7469 11 11 10.7469 11 10.4375V9.3125C11 7.81625 8.00188 7.0625 6.5 7.0625Z" stroke="black" stroke-width="0.3"/>
</svg>
