<svg width="16" height="16" viewBox="0 0 16 16" fill="none" xmlns="http://www.w3.org/2000/svg">
<path d="M12.8654 10.564C12.5774 10.0824 12.2338 9.16328 12.2338 7.5217V7.17274C12.2338 4.88732 10.3493 3.01474 8.03031 3H8C7.44315 3 6.89177 3.10686 6.37744 3.31445C5.86311 3.52205 5.39592 3.82631 5.00264 4.20981C4.60936 4.5933 4.29771 5.0485 4.08553 5.54934C3.87336 6.05018 3.76482 6.58681 3.76615 7.12851V7.5217C3.76615 9.16328 3.4226 10.0824 3.13461 10.564C3.04633 10.7137 2.99992 10.8834 3 11.056C3.00008 11.2286 3.04665 11.3982 3.13506 11.5478C3.22348 11.6975 3.35066 11.822 3.50394 11.9089C3.65721 11.9959 3.83123 12.0422 4.00866 12.0434H5.78708C5.83974 12.5788 6.09564 13.076 6.50481 13.4378C6.91399 13.7995 7.44707 14 8 14C8.55293 14 9.08601 13.7995 9.49519 13.4378C9.90436 13.076 10.1603 12.5788 10.2129 12.0434H11.9913C12.1688 12.0422 12.3428 11.9959 12.4961 11.9089C12.6493 11.822 12.7765 11.6975 12.8649 11.5478C12.9534 11.3982 12.9999 11.2286 13 11.056C13.0001 10.8834 12.9537 10.7137 12.8654 10.564V10.564ZM8 12.8298C7.76731 12.8289 7.54198 12.7503 7.36172 12.6072C7.18146 12.464 7.05721 12.265 7.00974 12.0434H8.99026C8.94279 12.265 8.81854 12.464 8.63828 12.6072C8.45802 12.7503 8.23269 12.8289 8 12.8298V12.8298ZM4.34212 10.8638C4.86251 9.80221 4.97871 8.48011 4.97871 7.5217V7.12851C4.97671 6.74153 5.05342 6.358 5.20442 5.99998C5.35542 5.64196 5.57773 5.31654 5.85855 5.04244C6.13937 4.76835 6.47315 4.551 6.84067 4.40291C7.20819 4.25482 7.6022 4.17892 8 4.17957H8.02526C9.67737 4.1894 11.0213 5.53117 11.0213 7.17274V7.5217C11.0213 8.48011 11.1375 9.80221 11.6579 10.8638H4.34212Z" fill="#000100"/>
</svg>
