<svg width="142" height="110" viewBox="0 0 142 110" fill="none" xmlns="http://www.w3.org/2000/svg">
<path d="M43.3161 39.0458C43.2747 39.0537 43.2321 39.0537 43.1907 39.0458L7.40609 21.4337C7.36808 21.4203 7.33335 21.399 7.30419 21.3711C7.27503 21.3433 7.25211 21.3096 7.23692 21.2722C7.22174 21.2348 7.21465 21.1947 7.21612 21.1543C7.21759 21.114 7.22759 21.0745 7.24545 21.0383C7.26331 21.0022 7.28864 20.9702 7.31975 20.9446C7.35086 20.9189 7.38705 20.9002 7.42593 20.8895C7.46481 20.8789 7.5055 20.8767 7.54531 20.883C7.58512 20.8892 7.62315 20.9039 7.65689 20.926L43.4472 38.5038C43.4809 38.5202 43.5111 38.5432 43.5359 38.5713C43.5608 38.5994 43.5799 38.6322 43.592 38.6677C43.6042 38.7032 43.6093 38.7408 43.6069 38.7782C43.6045 38.8157 43.5948 38.8523 43.5783 38.886C43.5533 38.9341 43.5157 38.9744 43.4695 39.0025C43.4232 39.0307 43.3702 39.0457 43.3161 39.0458Z" fill="#E6E7E8"/>
<path d="M108.866 28.474C108.866 28.474 110.576 25.1193 110.308 23.7558C110.04 22.3922 109.601 18.2959 109.601 18.2959L120.836 19.3399L117.222 32.3878" fill="white"/>
<path fill-rule="evenodd" clip-rule="evenodd" d="M117.131 32.6845H117.211C117.275 32.6825 117.336 32.6597 117.385 32.6195C117.435 32.5793 117.47 32.5239 117.484 32.462L121.093 19.4084C121.104 19.3671 121.107 19.3237 121.1 19.2813C121.093 19.2389 121.077 19.1985 121.053 19.1631C121.027 19.1284 120.995 19.0994 120.957 19.0778C120.92 19.0562 120.836 19.0376 120.836 19.0376L120.289 19.0075C120.289 19.0075 120.289 19.0075 120.289 19.0075M109.92 17.4217L110.023 18.4427L109.932 18.6325C109.949 18.7739 109.971 18.952 109.995 19.1569C110.15 20.4406 110.432 22.7762 110.599 23.7159C110.855 25.1593 109.202 28.474 109.128 28.6167C109.093 28.6856 109.032 28.738 108.958 28.7625C108.885 28.7871 108.805 28.7818 108.735 28.7479C108.7 28.7309 108.669 28.7072 108.644 28.6781C108.619 28.649 108.599 28.6152 108.587 28.5785C108.575 28.5419 108.57 28.5032 108.573 28.4647C108.576 28.4262 108.586 28.3886 108.604 28.3542C109.06 27.4414 110.206 24.8569 110.023 23.79C109.784 22.4322 109.328 18.4785 109.311 18.3073C109.306 18.2639 109.31 18.22 109.324 18.1786C109.338 18.1371 109.36 18.0993 109.39 18.0677C109.422 18.0369 109.459 18.0132 109.501 17.9985C109.542 17.9837 109.586 17.9781 109.63 17.9821C109.727 17.7901 109.824 17.6033 109.92 17.4217Z" fill="#231F20"/>
<path d="M30.3087 44.9051C30.3087 44.9051 30.4113 38.2642 30.3087 36.7694C30.2061 35.2746 32.4462 26.9564 31.9104 25.6499C31.3746 24.3434 29.8812 23.8356 29.3454 25.3761C28.8096 26.9165 27.8463 30.3396 27.8463 30.3396C27.8463 30.3396 21.9639 26.7111 20.784 29.1986C19.6041 31.686 18.504 36.313 19.7466 37.494C20.5021 38.1977 21.4671 38.6346 22.494 38.7377L22.1748 47.1643L30.3087 44.9051Z" fill="white"/>
<path d="M22.1748 47.4781C22.1088 47.4773 22.0449 47.4553 21.9924 47.4154C21.9561 47.3874 21.9272 47.3509 21.9083 47.3091C21.8894 47.2673 21.8811 47.2215 21.8841 47.1757L22.1919 39.023C21.2023 38.8644 20.2819 38.4157 19.5471 37.7336C18.0537 36.3301 19.4673 31.338 20.5161 29.0959C20.6237 28.8636 20.7819 28.6585 20.9792 28.4956C21.1765 28.3326 21.4078 28.2161 21.6561 28.1545C23.4744 27.584 26.6493 29.2956 27.6924 29.8661C27.9546 28.9361 28.6614 26.4829 29.0889 25.2505C29.1618 24.9455 29.3288 24.6712 29.5661 24.4664C29.8035 24.2617 30.0991 24.1368 30.4113 24.1095C30.8156 24.1397 31.2019 24.2891 31.5215 24.5389C31.8411 24.7887 32.0795 25.1277 32.2068 25.513C32.526 26.3003 32.0757 28.7364 31.3404 32.3593C30.9954 33.7908 30.7554 35.2457 30.6222 36.7123C30.7305 38.2071 30.6222 44.6027 30.6222 44.8765C30.6231 44.94 30.6029 45.0019 30.5647 45.0525C30.5265 45.1032 30.4725 45.1396 30.4113 45.1561L22.2774 47.4382C22.2478 47.4611 22.2121 47.475 22.1748 47.4781ZM22.4598 28.6509C22.2384 28.6486 22.0177 28.6774 21.8043 28.7364C21.6396 28.7791 21.4866 28.8581 21.3564 28.9677C21.2262 29.0773 21.1222 29.2147 21.0519 29.3697C19.9119 31.8515 18.8517 36.2902 19.9461 37.3228C20.6546 37.9718 21.555 38.3723 22.5111 38.4639C22.5887 38.4683 22.6615 38.5031 22.7137 38.5607C22.766 38.6183 22.7935 38.6942 22.7904 38.7719L22.4826 46.7935L30.018 44.6825C30.018 43.5415 30.1092 38.1044 30.018 36.7865C30.1394 35.265 30.3834 33.7558 30.7476 32.2737C31.2435 29.809 31.9218 26.4372 31.6482 25.7583C31.5625 25.4851 31.4005 25.2422 31.1813 25.0583C30.9621 24.8743 30.695 24.7569 30.4113 24.72C29.9724 24.72 29.7444 25.1364 29.6304 25.473C29.1003 26.9849 28.1427 30.3852 28.137 30.4195C28.124 30.463 28.1014 30.5031 28.0708 30.5367C28.0402 30.5702 28.0024 30.5965 27.9603 30.6135C27.9198 30.6345 27.8748 30.6454 27.8292 30.6454C27.7836 30.6454 27.7386 30.6345 27.6981 30.6135C27.6582 30.5678 24.5061 28.628 22.4598 28.628V28.6509Z" fill="#231F20"/>
<path d="M81.2097 80.8594L51.7521 86.3593L59.0766 42.8113C59.0766 42.8113 74.0733 39.7989 77.6985 39.7989C80.7537 39.7761 81.2097 80.8594 81.2097 80.8594Z" fill="white"/>
<path d="M51.7521 86.6217C51.6777 86.6222 51.6061 86.5935 51.5526 86.5418C51.5199 86.5095 51.4951 86.47 51.4803 86.4264C51.4654 86.3828 51.4609 86.3364 51.4671 86.2908L58.7916 42.7371C58.8029 42.6808 58.8305 42.6291 58.8711 42.5884C58.9117 42.5478 58.9633 42.5201 59.0196 42.5089C59.6295 42.3834 74.0847 39.4908 77.6985 39.4908C78.3483 39.4908 79.8759 39.525 80.8791 60.3035C81.3693 70.4588 81.489 80.751 81.4947 80.8423C81.4947 80.9096 81.4714 80.9747 81.4288 81.0267C81.3862 81.0788 81.3269 81.1144 81.261 81.1276L51.7977 86.6046L51.7521 86.6217ZM59.3217 43.0281L52.0998 85.9827L80.9247 80.6198C80.6625 57.8559 79.2489 40.0613 77.6985 40.0613C74.364 40.0613 61.083 42.6743 59.3217 43.0281Z" fill="#231F20"/>
<path d="M64.0641 39.7761C63.6252 40.0613 64.9077 46.3998 64.9818 46.9703C65.6231 52.7196 65.9352 58.5008 65.9166 64.2857C65.87 70.741 64.6032 77.1292 62.1831 83.113C61.0944 85.88 59.829 88.5843 58.5009 91.2429C57.1728 93.9016 54.5622 94.358 51.7806 94.1583C48.8045 93.9425 45.862 93.3933 43.0083 92.5209C41.9845 92.3017 41.0496 91.7812 40.3236 91.0261C39.1836 89.5713 40.4262 87.603 41.076 86.2109C41.9994 84.2312 42.8829 82.2173 43.7094 80.209C45.0261 76.9627 48.5772 69.1808 49.4835 65.7976C50.6634 61.3989 48.9135 61.3875 49.1187 56.8404C49.2042 55.0033 49.227 53.1662 49.3011 51.3291C49.341 50.228 49.0104 46.765 49.7286 45.932C55.2177 39.6049 64.0641 39.7761 64.0641 39.7761Z" fill="black"/>
<path fill-rule="evenodd" clip-rule="evenodd" d="M85.699 47.9578C85.9196 43.6677 86.171 38.7802 86.0661 38.7605C81.4843 37.8878 74.4676 39.6798 74.105 39.7724C74.0955 39.7748 74.0905 39.7761 74.0904 39.7761C74.2184 39.7863 77.5967 56.459 73.8991 83H93.2799C93.7913 82.5168 94.0803 82.133 94.0803 81.8921C94.0803 81.8921 85.8894 59.8813 85.4163 54.2845C85.3897 53.9717 85.5359 51.1278 85.699 47.9578Z" fill="black"/>
<path d="M71.0979 47.5637L68.8578 49.7431L70.6704 50.9983C70.6704 50.9983 68.7609 65.2157 62.0463 67.2353C55.3317 69.255 52.7211 68.559 52.7211 68.559L49.0161 73.3799C49.0161 73.3799 54.7731 75.0287 55.1835 75.1656C55.5939 75.3025 67.7919 72.4556 69.7128 64.8962C70.858 60.4371 71.6095 55.8858 71.9586 51.2949L73.1727 49.7659L71.0979 47.5637Z" fill="#231F20"/>
<path d="M62.6961 61.6613C62.6519 61.6609 62.6084 61.6504 62.5689 61.6306C62.5294 61.6109 62.4949 61.5823 62.4681 61.5472L56.7795 53.8395C56.7358 53.7887 56.7117 53.7239 56.7117 53.6569C56.7117 53.5899 56.7358 53.5251 56.7795 53.4743L60.3192 49.8116L55.8789 48.6705C55.8313 48.659 55.7878 48.6349 55.7527 48.6008C55.7176 48.5667 55.6923 48.5238 55.6794 48.4765C55.6661 48.4289 55.6654 48.3786 55.6774 48.3306C55.6894 48.2825 55.7136 48.2385 55.7478 48.2027L60.9405 42.6287C60.9926 42.5735 61.0646 42.5412 61.1405 42.5391C61.2164 42.5369 61.29 42.5651 61.3452 42.6173C61.4004 42.6695 61.4326 42.7415 61.4347 42.8175C61.4368 42.8934 61.4087 42.9671 61.3566 43.0223L56.4888 48.2426L60.9405 49.3837C60.9879 49.3973 61.0312 49.4227 61.0661 49.4577C61.101 49.4926 61.1264 49.5359 61.14 49.5834C61.1539 49.631 61.1549 49.6814 61.1429 49.7296C61.1308 49.7777 61.1062 49.8217 61.0716 49.8572L57.3552 53.6968L62.8899 61.2334C62.9329 61.2943 62.9504 61.3695 62.9386 61.4431C62.9269 61.5166 62.8869 61.5827 62.8272 61.6271C62.7871 61.6496 62.742 61.6614 62.6961 61.6613Z" fill="#231F20"/>
<path d="M76.9461 60.8284C76.9083 60.8337 76.8699 60.8337 76.8321 60.8284C76.7634 60.7971 76.7095 60.7404 76.6819 60.6701C76.6542 60.5998 76.6549 60.5216 76.6839 60.4518L80.862 50.6959L76.5756 48.545C76.5077 48.5059 76.4569 48.4428 76.4331 48.3681C76.4221 48.3302 76.419 48.2903 76.4239 48.2511C76.4288 48.2119 76.4416 48.174 76.4616 48.1399L79.665 42.9311L75.4584 40.9856C75.3903 40.9522 75.3376 40.894 75.3111 40.8229C75.2846 40.7518 75.2863 40.6732 75.3159 40.6033C75.3318 40.5691 75.3543 40.5383 75.3822 40.5129C75.4101 40.4874 75.4427 40.4677 75.4783 40.455C75.5138 40.4422 75.5515 40.4367 75.5892 40.4386C75.6269 40.4406 75.6638 40.45 75.6978 40.4664L80.1951 42.5488C80.232 42.5654 80.2649 42.5898 80.2915 42.6203C80.318 42.6508 80.3377 42.6868 80.349 42.7257C80.3601 42.7646 80.3633 42.8053 80.3584 42.8455C80.3536 42.8857 80.3406 42.9245 80.3205 42.9596L77.0943 48.1342L81.3408 50.268C81.4056 50.3001 81.4559 50.3557 81.4813 50.4235C81.5067 50.4913 81.5054 50.5662 81.4776 50.6331L77.1912 60.6344C77.173 60.6867 77.1403 60.7328 77.0969 60.7671C77.0535 60.8015 77.0012 60.8227 76.9461 60.8284Z" fill="#231F20"/>
<path d="M86.0661 38.7605C86.0661 38.7605 96.7536 42.3548 99.4953 41.5504C102.237 40.746 107.783 27.5954 107.783 27.5954L119.018 28.9932C119.018 28.9932 114.332 56.8119 105.418 58.3066C96.5028 59.8014 84.6525 55.8249 84.6525 55.8249L86.0661 38.7605Z" fill="black"/>
<path d="M60.0627 28.474C59.6067 26.4087 58.9911 24.3663 58.8087 22.261C58.6263 20.1558 58.9113 17.9251 60.1026 16.185C61.3851 14.3136 63.021 14.5304 64.9932 14.2737C67.6095 13.9314 69.9465 12.6192 72.3747 11.6721C72.8364 11.4896 73.5546 11.4496 73.6401 11.9403C73.6538 12.0937 73.6242 12.2479 73.5546 12.3853C73.241 13.1617 72.804 13.8822 72.2607 14.519C74.16 14.0874 75.9822 13.3679 77.6643 12.3853C77.8434 13.3161 77.8109 14.2753 77.5691 15.1919C77.3274 16.1084 76.8826 16.9587 76.2678 17.6797L79.4769 16.0709C79.7158 17.4258 79.4304 18.8209 78.6787 19.9728C77.927 21.1246 76.7654 21.9469 75.4299 22.2724" fill="white"/>
<path d="M60.0627 28.765C59.996 28.7663 59.931 28.7442 59.8789 28.7025C59.8268 28.6608 59.791 28.6022 59.7777 28.5368C59.658 28.0005 59.5269 27.4642 59.3958 26.9222C58.9868 25.4024 58.6933 23.8537 58.518 22.2895C58.3641 20.5437 58.4724 18.0449 59.8632 16.0138C61.0032 14.3593 62.4396 14.2224 63.9729 14.0854L64.959 13.9827C66.8127 13.6473 68.6104 13.0539 70.2999 12.2198C70.944 11.9403 71.6052 11.6493 72.2664 11.3983C72.4715 11.3094 72.6927 11.2635 72.9162 11.2635C73.1397 11.2635 73.3609 11.3094 73.566 11.3983C73.6619 11.4489 73.7447 11.5211 73.808 11.6092C73.8713 11.6973 73.9134 11.7989 73.9308 11.906C73.9575 12.1133 73.9218 12.3239 73.8282 12.5108C73.6105 13.0504 73.3353 13.565 73.0074 14.0455C74.5869 13.6073 76.1026 12.9648 77.5161 12.1342C77.5572 12.1118 77.6032 12.1 77.65 12.1C77.6969 12.1 77.7429 12.1118 77.784 12.1342C77.8262 12.154 77.8631 12.1833 77.8918 12.22C77.9206 12.2567 77.9402 12.2996 77.9493 12.3453C78.2533 13.9091 77.982 15.5302 77.1855 16.9095L79.3401 15.8312C79.381 15.8115 79.4258 15.8013 79.4712 15.8013C79.5166 15.8013 79.5614 15.8115 79.6023 15.8312C79.643 15.8507 79.6786 15.8794 79.7063 15.9151C79.734 15.9507 79.753 15.9923 79.7619 16.0366C80.0174 17.468 79.7172 18.943 78.9226 20.1603C78.1281 21.3776 76.8991 22.2454 75.4869 22.5862C75.4491 22.5945 75.4099 22.5952 75.3719 22.5882C75.3338 22.5812 75.2974 22.5666 75.2651 22.5454C75.2327 22.5241 75.2048 22.4966 75.1832 22.4644C75.1616 22.4322 75.1466 22.3961 75.1392 22.358C75.1256 22.281 75.1424 22.2018 75.186 22.1369C75.2296 22.072 75.2965 22.0265 75.3729 22.01C76.6397 21.7213 77.7404 20.9417 78.4338 19.842C79.0813 18.8593 79.3618 17.6795 79.2261 16.5101L76.3761 17.9422C76.3153 17.9698 76.247 17.9762 76.1822 17.9602C76.1174 17.9442 76.0599 17.9067 76.019 17.8539C75.9781 17.8011 75.9562 17.736 75.9569 17.6692C75.9576 17.6024 75.9807 17.5377 76.0227 17.4857C76.5619 16.8516 76.9642 16.1127 77.2045 15.3155C77.4449 14.5183 77.5179 13.6799 77.4192 12.8531C75.8105 13.7443 74.0832 14.4013 72.2892 14.8043C72.229 14.8173 72.1662 14.8111 72.1096 14.7868C72.053 14.7624 72.0054 14.7209 71.9734 14.6682C71.9414 14.6155 71.9267 14.5541 71.9312 14.4926C71.9357 14.4311 71.9592 14.3725 71.9985 14.325C72.5249 13.7151 72.9485 13.0233 73.2525 12.2769C73.2947 12.1878 73.3162 12.0902 73.3152 11.9916C73.3132 11.9709 73.3058 11.951 73.2938 11.934C73.2818 11.917 73.2656 11.9034 73.2468 11.8946C72.9833 11.8147 72.6999 11.833 72.4488 11.946C71.799 12.197 71.1378 12.5165 70.5051 12.7618C68.7624 13.6161 66.9091 14.2229 64.9989 14.5647C64.6512 14.6103 64.3149 14.6388 63.99 14.6731C62.4852 14.81 61.2939 14.9184 60.3135 16.3504C59.0253 18.2331 58.9227 20.5894 59.0652 22.2382C59.2413 23.7789 59.5309 25.3044 59.9316 26.8024C60.0627 27.3729 60.1938 27.8864 60.3192 28.4284C60.3344 28.5047 60.319 28.584 60.2764 28.6491C60.2337 28.7142 60.1672 28.7599 60.0912 28.7764L60.0627 28.765Z" fill="#231F20"/>
<path d="M74.0961 37.2943L74.7744 41.7216C74.7744 41.7216 74.079 48.1628 69.2169 47.0331C64.3548 45.9035 62.4168 41.5162 62.4168 41.5162L61.7955 29.8205C61.7955 29.8205 65.3808 27.8636 64.2465 20.0531C68.2314 21.7251 72.593 22.2907 76.872 21.6905C76.872 21.6905 78.582 29.7349 78.0576 33.5003C77.9699 34.5063 77.5197 35.446 76.7907 36.1441C76.0618 36.8422 75.104 37.251 74.0961 37.2943Z" fill="white"/>
<path d="M70.2942 47.4781C69.9104 47.474 69.5281 47.4281 69.1542 47.3412C67.6426 46.9582 66.2329 46.2491 65.0238 45.2636C63.8147 44.2781 62.8355 43.04 62.1546 41.636C62.1466 41.6022 62.1466 41.567 62.1546 41.5333L61.4877 29.8775C61.4837 29.8218 61.4962 29.7661 61.5236 29.7174C61.5509 29.6687 61.592 29.6292 61.6416 29.6036C61.6758 29.6036 65.0217 27.6182 63.9216 20.1387C63.9157 20.0857 63.9236 20.0321 63.9446 19.9831C63.9656 19.9341 63.9989 19.8913 64.0413 19.8591C64.0835 19.8257 64.1345 19.8052 64.1881 19.8002C64.2417 19.7951 64.2956 19.8057 64.3434 19.8306C68.2802 21.4654 72.5811 22.0208 76.8036 21.4394C76.8772 21.4307 76.9513 21.4499 77.0114 21.4932C77.0716 21.5365 77.1133 21.6008 77.1285 21.6734C77.1969 21.9986 78.867 29.809 78.3141 33.5859C78.2175 34.5999 77.7758 35.55 77.0629 36.277C76.3501 37.004 75.4093 37.4638 74.3982 37.5795L75.0309 41.693C75.0337 41.7196 75.0337 41.7463 75.0309 41.7729C75.0309 41.9098 74.6262 45.2759 72.5115 46.7764C71.8646 47.2381 71.0887 47.4837 70.2942 47.4781ZM62.6961 41.4591C62.9184 41.9269 64.8792 45.7437 69.2682 46.765C69.7609 46.9073 70.2789 46.9392 70.7853 46.8583C71.2917 46.7775 71.774 46.5858 72.198 46.2971C73.9878 45.0306 74.421 42.1038 74.478 41.7329L73.8054 37.3456C73.7988 37.304 73.8016 37.2614 73.8134 37.221C73.8252 37.1805 73.8458 37.1432 73.8738 37.1117C73.8991 37.0786 73.932 37.052 73.9697 37.0341C74.0074 37.0163 74.0487 37.0077 74.0904 37.009C75.0299 36.9701 75.9226 36.5882 76.6 35.9355C77.2774 35.2827 77.6925 34.4043 77.7669 33.4661C78.2457 30.1741 76.9347 23.442 76.6269 22.0556C72.5547 22.5496 68.4236 22.0384 64.5942 20.5665C65.4093 27.2245 62.7816 29.5238 62.0862 30.0087L62.6961 41.4591Z" fill="#231F20"/>
<path d="M71.5824 26.4201C71.5824 26.4201 73.8624 30.6591 73.1955 31.2981C72.5286 31.9371 70.7559 31.2981 70.7559 31.2981" fill="white"/>
<path d="M72.2265 31.8686C71.6983 31.8568 71.1752 31.7625 70.6761 31.5891C70.6378 31.5793 70.602 31.5616 70.5709 31.5372C70.5399 31.5128 70.5142 31.4822 70.4955 31.4473C70.4769 31.4124 70.4657 31.374 70.4627 31.3346C70.4597 31.2952 70.4649 31.2556 70.4779 31.2183C70.491 31.1809 70.5117 31.1468 70.5387 31.1179C70.5657 31.089 70.5984 31.0661 70.6347 31.0505C70.671 31.0349 70.7102 31.0271 70.7497 31.0275C70.7892 31.0279 70.8282 31.0365 70.8642 31.0528C71.2746 31.2011 72.5742 31.5206 73.0131 31.0984C73.2924 30.8417 72.4944 28.6851 71.343 26.5685C71.3249 26.5355 71.3136 26.4993 71.3095 26.462C71.3055 26.4246 71.3089 26.3868 71.3194 26.3508C71.33 26.3147 71.3476 26.2811 71.3713 26.2519C71.3949 26.2227 71.424 26.1984 71.457 26.1805C71.4899 26.1624 71.5261 26.1511 71.5634 26.147C71.6007 26.143 71.6385 26.1463 71.6745 26.1569C71.7105 26.1676 71.7441 26.1852 71.7733 26.2088C71.8025 26.2324 71.8267 26.2616 71.8446 26.2946C72.5742 27.6296 74.1759 30.8075 73.395 31.5206C73.0614 31.7764 72.6455 31.9003 72.2265 31.8686Z" fill="#231F20"/>
<path d="M67.4797 26.7586C67.7439 26.7475 67.9374 26.2484 67.912 25.644C67.8866 25.0396 67.6518 24.5586 67.3876 24.5697C67.1234 24.5809 66.9299 25.0799 66.9553 25.6843C66.9807 26.2888 67.2155 26.7697 67.4797 26.7586Z" fill="#231F20"/>
<path d="M75.1109 26.7569C75.3751 26.7457 75.5687 26.2467 75.5433 25.6423C75.5179 25.0378 75.2831 24.5569 75.0189 24.568C74.7547 24.5791 74.5611 25.0781 74.5865 25.6826C74.6119 26.287 74.8467 26.768 75.1109 26.7569Z" fill="#231F20"/>
<path d="M64.902 27.8236C64.4679 27.0903 63.8993 26.4458 63.2262 25.9238C62.88 25.6108 62.4463 25.4117 61.9836 25.3532C61.6035 25.3572 61.2322 25.4679 60.912 25.6727C60.433 25.9534 60.0188 26.3323 59.6965 26.7846C59.3743 27.237 59.1514 27.7524 59.0424 28.2971C58.9358 28.8019 58.9553 29.3251 59.0994 29.8204C59.375 30.5883 59.9117 31.2346 60.6156 31.6461C61.3135 32.0498 62.0556 32.3714 62.8272 32.6046" fill="white"/>
<path d="M62.8272 32.9184H62.7303C61.9339 32.6786 61.1685 32.3454 60.4503 31.9257C59.6884 31.48 59.1088 30.7786 58.8144 29.946C58.6538 29.403 58.6303 28.8286 58.746 28.2743C58.8628 27.6835 59.1029 27.124 59.4506 26.6324C59.7983 26.1408 60.2458 25.7283 60.7638 25.4217C61.1297 25.1875 61.5549 25.0628 61.9893 25.0623C62.5115 25.1175 63.0045 25.3304 63.4029 25.6727C64.1036 26.2192 64.6953 26.8927 65.1471 27.6582C65.1868 27.7256 65.1984 27.806 65.1791 27.8819C65.1599 27.9577 65.1115 28.0229 65.0445 28.0632C64.9765 28.1025 64.8956 28.1132 64.8197 28.0929C64.7438 28.0725 64.6791 28.0229 64.6398 27.9548C64.2295 27.2529 63.6875 26.6368 63.0438 26.1406C62.7409 25.8753 62.3658 25.7064 61.9665 25.6556C61.643 25.6602 61.3271 25.755 61.0545 25.9295C60.616 26.193 60.2374 26.5453 59.943 26.9639C59.6485 27.3824 59.4446 27.8579 59.3445 28.3599C59.2517 28.8177 59.2693 29.291 59.3958 29.7406C59.6504 30.4402 60.1427 31.0279 60.7866 31.4008C61.466 31.794 62.1892 32.1061 62.9412 32.3308C62.9776 32.343 63.0112 32.3623 63.0401 32.3876C63.069 32.4129 63.0927 32.4436 63.1096 32.4781C63.1266 32.5126 63.1365 32.5501 63.1389 32.5885C63.1413 32.6268 63.1361 32.6653 63.1236 32.7016C63.1076 32.7669 63.0691 32.8245 63.0149 32.8641C62.9607 32.9038 62.8942 32.923 62.8272 32.9184Z" fill="#231F20"/>
<path d="M74.0961 37.2943C71.3015 37.7259 68.4422 37.2543 65.9337 35.9479C65.9337 35.9479 70.0947 42.3491 74.7345 41.4477L74.0961 37.2943Z" fill="#231F20"/>
<path d="M73.7997 41.8585C69.4449 41.8585 65.8197 36.3929 65.6772 36.1532C65.6437 36.1 65.6283 36.0372 65.6335 35.9745C65.6386 35.9117 65.664 35.8523 65.7057 35.8052C65.7472 35.7576 65.8036 35.7255 65.8657 35.7141C65.9279 35.7027 65.992 35.7127 66.0477 35.7425C68.5025 37.0126 71.2954 37.4738 74.0277 37.0604C74.1049 37.0467 74.1844 37.063 74.25 37.106C74.282 37.1286 74.309 37.1575 74.3296 37.1908C74.3502 37.2241 74.3638 37.2613 74.3697 37.3L75.0081 41.4477C75.0214 41.5203 75.0056 41.5952 74.9639 41.6562C74.9223 41.7171 74.8582 41.7591 74.7858 41.7729C74.4606 41.8327 74.1304 41.8613 73.7997 41.8585ZM66.7944 36.7238C68.0769 38.3612 71.1321 41.6987 74.3925 41.288L73.8225 37.6994C71.4313 37.9925 69.0052 37.642 66.7944 36.6838V36.7238Z" fill="#231F20"/>
<path d="M67.9059 29.5181C67.1415 29.5181 66.3944 29.2912 65.7588 28.8662C65.1233 28.4411 64.628 27.837 64.3355 27.1302C64.043 26.4234 63.9664 25.6456 64.1155 24.8953C64.2647 24.1449 64.6327 23.4557 65.1732 22.9147C65.7137 22.3738 66.4023 22.0053 67.1519 21.8561C67.9016 21.7068 68.6786 21.7834 69.3848 22.0762C70.091 22.369 70.6945 22.8648 71.1192 23.5009C71.5438 24.137 71.7705 24.8849 71.7705 25.6499C71.769 26.6753 71.3613 27.6583 70.6369 28.3834C69.9125 29.1085 68.9304 29.5166 67.9059 29.5181ZM67.9059 22.3694C67.2577 22.3694 66.624 22.5618 66.085 22.9223C65.546 23.2827 65.1259 23.7951 64.8779 24.3945C64.6298 24.994 64.5649 25.6536 64.6914 26.2899C64.8178 26.9263 65.13 27.5108 65.5884 27.9696C66.0467 28.4284 66.6307 28.7408 67.2665 28.8674C67.9023 28.994 68.5612 28.929 69.1601 28.6807C69.759 28.4324 70.2709 28.0119 70.631 27.4725C70.9912 26.933 71.1834 26.2987 71.1834 25.6499C71.1819 24.7803 70.8361 23.9468 70.2218 23.3319C69.6074 22.717 68.7747 22.3709 67.9059 22.3694Z" fill="#231F20"/>
<path d="M75.6123 29.5181C74.8479 29.5181 74.1008 29.2912 73.4652 28.8662C72.8297 28.4411 72.3344 27.837 72.0419 27.1302C71.7494 26.4234 71.6728 25.6456 71.8219 24.8953C71.9711 24.1449 72.3391 23.4557 72.8796 22.9147C73.4201 22.3738 74.1087 22.0053 74.8583 21.8561C75.608 21.7068 76.385 21.7834 77.0912 22.0762C77.7974 22.369 78.4009 22.8648 78.8256 23.5009C79.2502 24.137 79.4769 24.8849 79.4769 25.6499C79.4754 26.6753 79.0677 27.6583 78.3433 28.3834C77.6189 29.1085 76.6368 29.5166 75.6123 29.5181ZM75.6123 22.3694C74.9641 22.3694 74.3304 22.5618 73.7914 22.9223C73.2524 23.2827 72.8323 23.7951 72.5843 24.3945C72.3362 24.994 72.2713 25.6536 72.3978 26.2899C72.5242 26.9263 72.8364 27.5108 73.2947 27.9696C73.7531 28.4284 74.3371 28.7408 74.9729 28.8674C75.6087 28.994 76.2677 28.929 76.8665 28.6807C77.4654 28.4324 77.9773 28.0119 78.3374 27.4725C78.6976 26.933 78.8898 26.2987 78.8898 25.6499C78.8883 24.7803 78.5425 23.9468 77.9282 23.3319C77.3138 22.717 76.4811 22.3709 75.6123 22.3694Z" fill="#231F20"/>
<path d="M71.6052 34.2306C69.804 34.2306 68.0655 33.1352 66.4296 31.0071C66.4013 30.9782 66.3794 30.9436 66.3654 30.9056C66.3515 30.8676 66.3458 30.827 66.3488 30.7866C66.3517 30.7462 66.3632 30.7069 66.3825 30.6713C66.4018 30.6357 66.4284 30.6047 66.4606 30.5802C66.4928 30.5557 66.5299 30.5383 66.5694 30.5293C66.6088 30.5202 66.6497 30.5197 66.6894 30.5277C66.729 30.5357 66.7665 30.5521 66.7994 30.5757C66.8322 30.5994 66.8597 30.6297 66.8799 30.6648C68.4018 32.6388 69.9921 33.6486 71.6052 33.6601C73.8339 33.6601 75.3786 31.7317 75.3957 31.7146C75.4435 31.66 75.5103 31.6256 75.5825 31.6186C75.6547 31.6116 75.7269 31.6323 75.7843 31.6767C75.8417 31.7211 75.8801 31.7857 75.8915 31.8574C75.903 31.9291 75.8867 32.0025 75.846 32.0626C75.7662 32.1596 74.0961 34.2306 71.6052 34.2306Z" fill="#231F20"/>
<path d="M51.7521 43.9922C49.7286 45.9377 34.7433 61.1079 33.6204 58.3124C32.4975 55.5168 31.6995 42.6857 31.6995 42.6857L21.4395 44.209C21.4395 44.209 15.5229 73.1003 25.8114 76.2838C36.0999 79.4673 51.7521 64.3028 51.7521 64.3028V43.9922Z" fill="black"/>
<path d="M43.3161 81.4128C43.2658 81.4132 43.2164 81.3993 43.1736 81.3729C43.141 81.3546 43.1124 81.3299 43.0895 81.3003C43.0666 81.2707 43.0499 81.2368 43.0403 81.2007C43.0307 81.1645 43.0285 81.1267 43.0338 81.0897C43.0391 81.0526 43.0517 81.017 43.071 80.985C43.1337 80.8708 49.7001 69.1409 51.8319 50.5076C51.8432 50.433 51.8825 50.3655 51.9418 50.3188C52.0011 50.2722 52.076 50.2499 52.1511 50.2566C52.2258 50.2652 52.2941 50.303 52.3411 50.3618C52.388 50.4206 52.4099 50.4955 52.4019 50.5704C50.253 69.3292 43.6296 81.1504 43.5612 81.2702C43.5363 81.3133 43.5006 81.3492 43.4576 81.3742C43.4146 81.3992 43.3658 81.4125 43.3161 81.4128Z" fill="#231F20"/>
<path d="M103.223 58.6033C95.5566 58.6033 81.2952 55.3913 81.1527 55.3571C81.1159 55.349 81.0811 55.3337 81.0503 55.312C81.0195 55.2904 80.9932 55.2629 80.9731 55.2311C80.953 55.1993 80.9393 55.1637 80.933 55.1266C80.9266 55.0895 80.9277 55.0515 80.9361 55.0147C80.9433 54.9777 80.9582 54.9425 80.9797 54.9115C81.0012 54.8804 81.0288 54.8542 81.061 54.8343C81.0931 54.8145 81.129 54.8015 81.1663 54.7963C81.2037 54.791 81.2417 54.7935 81.2781 54.8037C81.4206 54.8322 95.6193 58.0328 103.217 58.0328H103.787C103.863 58.0328 103.935 58.0618 103.989 58.114C104.043 58.1661 104.075 58.2372 104.078 58.3124C104.079 58.3498 104.072 58.3871 104.059 58.422C104.045 58.4569 104.025 58.4887 103.999 58.5158C103.973 58.5428 103.942 58.5644 103.907 58.5794C103.873 58.5945 103.836 58.6026 103.799 58.6033H103.223Z" fill="#231F20"/>
<path d="M25.6974 29.2214C25.6974 29.2214 27.4986 31.1441 26.6151 34.5159C25.7316 37.8876 24.2439 38.5095 21.7188 37.009" fill="white"/>
<path d="M23.9361 38.0816C23.0865 38.025 22.2676 37.7413 21.5649 37.2601C21.5319 37.2402 21.5032 37.2141 21.4804 37.1831C21.4576 37.1521 21.4411 37.117 21.4318 37.0796C21.4225 37.0423 21.4207 37.0035 21.4264 36.9654C21.4321 36.9274 21.4453 36.8908 21.4651 36.8578C21.485 36.8249 21.5111 36.7961 21.542 36.7733C21.573 36.7504 21.6081 36.7339 21.6454 36.7246C21.6827 36.7153 21.7215 36.7135 21.7595 36.7193C21.7975 36.725 21.8341 36.7381 21.867 36.758C23.007 37.4483 23.8848 37.648 24.546 37.3799C25.3098 37.0718 25.8912 36.1133 26.3244 34.4417C27.1509 31.281 25.5435 29.5009 25.4751 29.4268C25.4204 29.3713 25.3898 29.2965 25.3898 29.2185C25.3898 29.1406 25.4204 29.0658 25.4751 29.0103C25.5017 28.9827 25.5335 28.9607 25.5688 28.9457C25.6041 28.9307 25.642 28.923 25.6803 28.923C25.7186 28.923 25.7565 28.9307 25.7918 28.9457C25.827 28.9607 25.8589 28.9827 25.8855 29.0103C25.9653 29.0959 27.7893 31.0927 26.8773 34.5786C26.3814 36.467 25.7373 37.5282 24.7512 37.9162C24.4923 38.022 24.2158 38.0781 23.9361 38.0816Z" fill="#231F20"/>
<path d="M110.308 23.7558C110.308 23.7558 107.019 18.216 107.823 17.6512C108.627 17.0864 110.496 19.2429 111.528 20.7035C111.528 20.7035 114.691 21.274 114.161 24.7998" fill="white"/>
<path d="M114.161 25.0965H114.116C114.039 25.0839 113.97 25.0415 113.924 24.9785C113.878 24.9155 113.859 24.837 113.871 24.7599C114.355 21.5536 111.591 21.0173 111.477 21.0001C111.401 20.9857 111.334 20.9428 111.289 20.8803C109.932 18.9577 108.439 17.5941 107.994 17.8965C107.783 18.2788 108.957 20.9032 110.565 23.6017C110.603 23.6686 110.613 23.7477 110.594 23.8222C110.575 23.8967 110.528 23.9608 110.462 24.0011C110.429 24.0216 110.392 24.0352 110.354 24.0411C110.315 24.047 110.276 24.0451 110.238 24.0355C110.2 24.0259 110.165 24.0089 110.134 23.9853C110.103 23.9618 110.077 23.9322 110.057 23.8984C108.496 21.2626 106.808 17.9992 107.658 17.4059C108.798 16.5957 110.969 19.4027 111.705 20.4353C112.315 20.5951 114.959 21.4851 114.452 24.8398C114.442 24.9104 114.408 24.9752 114.354 25.0223C114.301 25.0694 114.233 25.0958 114.161 25.0965Z" fill="#231F20"/>
<path d="M9.46949 108.427C9.41147 108.427 9.35501 108.408 9.30765 108.375C9.26029 108.341 9.22429 108.294 9.20446 108.239C9.18463 108.185 9.18192 108.125 9.19668 108.069C9.21145 108.013 9.24299 107.963 9.28709 107.925L37.2171 84.5735C37.2753 84.5251 37.3503 84.5018 37.4257 84.5088C37.463 84.5122 37.4993 84.523 37.5324 84.5405C37.5656 84.5579 37.595 84.5818 37.6189 84.6106C37.6429 84.6395 37.6609 84.6728 37.672 84.7086C37.6831 84.7444 37.6871 84.7821 37.6836 84.8194C37.6802 84.8568 37.6694 84.8931 37.652 84.9263C37.6345 84.9594 37.6107 84.9889 37.5819 85.0128L9.65189 108.364C9.60023 108.406 9.53573 108.428 9.46949 108.427Z" fill="#E6E7E8"/>
<path d="M137.965 98.5456C137.903 98.5461 137.843 98.526 137.794 98.4886L94.998 66.0258C94.9629 66.0056 94.9326 65.9781 94.909 65.9453C94.8854 65.9124 94.869 65.8748 94.861 65.8351C94.853 65.7954 94.8535 65.7545 94.8626 65.715C94.8716 65.6755 94.8889 65.6384 94.9134 65.6062C94.9379 65.5739 94.9689 65.5473 95.0045 65.528C95.0401 65.5087 95.0793 65.4972 95.1197 65.4942C95.1601 65.4913 95.2006 65.497 95.2385 65.5109C95.2765 65.5249 95.3111 65.5468 95.34 65.5751L138.136 98.0322C138.196 98.0776 138.236 98.1451 138.247 98.22C138.257 98.2949 138.238 98.371 138.193 98.4315C138.166 98.4666 138.131 98.4952 138.092 98.5149C138.052 98.5347 138.009 98.5452 137.965 98.5456Z" fill="#E6E7E8"/>
<path d="M47.7336 26.7054C47.6936 26.7049 47.6542 26.6961 47.6178 26.6794C47.5815 26.6627 47.5491 26.6385 47.5227 26.6084L26.6436 3.2455C26.591 3.19121 26.5616 3.11857 26.5616 3.04296C26.5616 2.96735 26.591 2.89471 26.6436 2.84042C26.6701 2.81369 26.7016 2.79247 26.7363 2.77798C26.7711 2.7635 26.8083 2.75604 26.8459 2.75604C26.8836 2.75604 26.9208 2.7635 26.9555 2.77798C26.9903 2.79247 27.0218 2.81369 27.0483 2.84042L47.9217 26.2033C47.9484 26.2299 47.9696 26.2614 47.9841 26.2962C47.9985 26.3309 48.006 26.3682 48.006 26.4059C48.006 26.4435 47.9985 26.4808 47.9841 26.5156C47.9696 26.5503 47.9484 26.5819 47.9217 26.6084C47.8734 26.6632 47.8062 26.6979 47.7336 26.7054Z" fill="#E6E7E8"/>
<path d="M119.029 44.3631C118.954 44.3767 118.876 44.3597 118.813 44.3158C118.75 44.2719 118.707 44.2048 118.693 44.1291C118.679 44.0535 118.696 43.9755 118.74 43.9124C118.784 43.8493 118.851 43.8062 118.927 43.7925L140.963 35.189C141.033 35.1611 141.112 35.1622 141.181 35.1921C141.251 35.2221 141.305 35.2784 141.333 35.3488C141.361 35.4192 141.36 35.4978 141.33 35.5673C141.3 35.6368 141.244 35.6916 141.174 35.7196L119.126 44.3402C119.096 44.3551 119.063 44.3629 119.029 44.3631Z" fill="#E6E7E8"/>
<path d="M84.6525 24.7085C84.6114 24.7192 84.5682 24.7192 84.5271 24.7085C84.4934 24.6921 84.4632 24.6692 84.4383 24.6411C84.4135 24.6129 84.3944 24.5802 84.3822 24.5447C84.3701 24.5091 84.365 24.4716 84.3674 24.4341C84.3697 24.3966 84.3794 24.36 84.396 24.3263L92.2563 8.42012C92.2895 8.35203 92.3485 8.29995 92.4201 8.27534C92.4917 8.25073 92.5702 8.25561 92.6382 8.2889C92.7062 8.32219 92.7582 8.38116 92.7828 8.45284C92.8074 8.52453 92.8025 8.60306 92.7693 8.67115L84.9261 24.5545C84.9 24.6037 84.8603 24.6444 84.8118 24.6717C84.7633 24.699 84.708 24.7118 84.6525 24.7085Z" fill="#E6E7E8"/>
<path d="M137.965 63.3387H137.936L112.206 59.984C112.169 59.9795 112.133 59.9677 112.1 59.9492C112.067 59.9307 112.038 59.9059 112.015 59.8763C111.991 59.8466 111.974 59.8126 111.964 59.7763C111.954 59.74 111.951 59.702 111.955 59.6645C111.96 59.6271 111.972 59.5908 111.99 59.558C112.009 59.5251 112.034 59.4961 112.063 59.4728C112.093 59.4495 112.127 59.4323 112.163 59.4221C112.199 59.4119 112.237 59.409 112.275 59.4135L138.01 62.7682C138.085 62.7781 138.153 62.8173 138.199 62.8772C138.245 62.9371 138.265 63.0128 138.255 63.0877C138.246 63.1577 138.211 63.2218 138.157 63.268C138.104 63.3142 138.035 63.3393 137.965 63.3387Z" fill="#E6E7E8"/>
<path d="M90.2328 34.2306C90.1898 34.2313 90.1473 34.2218 90.1087 34.203C90.0701 34.1841 90.0364 34.1565 90.0105 34.1222C89.9864 34.0936 89.9682 34.0604 89.9572 34.0247C89.9461 33.9889 89.9423 33.9513 89.946 33.9141C89.9497 33.8768 89.9609 33.8407 89.9788 33.8078C89.9967 33.775 90.0211 33.7461 90.0504 33.7228L93.8865 30.6135C93.9455 30.5668 94.0206 30.5455 94.0954 30.554C94.1701 30.5626 94.2385 30.6003 94.2855 30.6591C94.3327 30.7175 94.355 30.7922 94.3476 30.867C94.3401 30.9418 94.3035 31.0106 94.2456 31.0585L90.4095 34.1678C90.3591 34.2077 90.297 34.2298 90.2328 34.2306Z" fill="#E6E7E8"/>
<path d="M114.845 108.427C114.796 108.428 114.747 108.416 114.704 108.392C114.661 108.368 114.625 108.333 114.6 108.29L99.843 83.3012C99.8056 83.2361 99.7954 83.1588 99.8146 83.0861C99.8338 83.0135 99.8809 82.9514 99.9456 82.9133C100.011 82.8751 100.088 82.8638 100.162 82.8819C100.235 82.9 100.299 82.9461 100.339 83.0103L115.091 107.999C115.11 108.031 115.122 108.067 115.128 108.104C115.133 108.141 115.131 108.179 115.121 108.215C115.112 108.251 115.095 108.285 115.072 108.315C115.049 108.344 115.02 108.369 114.988 108.387C114.945 108.414 114.896 108.428 114.845 108.427Z" fill="#E6E7E8"/>
<path d="M33.8598 109.848C33.8138 109.848 33.7686 109.836 33.7287 109.813C33.6626 109.778 33.6129 109.718 33.5905 109.647C33.5681 109.575 33.5748 109.498 33.609 109.431L39.5997 98.1234C39.6176 98.0904 39.6418 98.0612 39.671 98.0376C39.7002 98.014 39.7338 97.9964 39.7698 97.9858C39.8058 97.9752 39.8436 97.9718 39.8809 97.9758C39.9182 97.9799 39.9544 97.9913 39.9873 98.0093C40.0201 98.0267 40.0491 98.0504 40.0727 98.0791C40.0962 98.1078 40.1138 98.1409 40.1244 98.1765C40.135 98.2121 40.1384 98.2495 40.1345 98.2864C40.1305 98.3233 40.1192 98.3591 40.1013 98.3916L34.1163 109.699C34.0903 109.744 34.0529 109.782 34.0079 109.808C33.9629 109.834 33.9118 109.848 33.8598 109.848Z" fill="#E6E7E8"/>
<path d="M0.281089 74.2413C0.217667 74.2417 0.156025 74.2204 0.106299 74.181C0.0565733 74.1416 0.0217234 74.0864 0.00748666 74.0245C-0.00965464 73.9512 0.00290628 73.874 0.0424202 73.8099C0.0819342 73.7457 0.145193 73.6998 0.218388 73.6822L18.5895 69.5003C18.6651 69.4836 18.7442 69.4977 18.8094 69.5395C18.8746 69.5812 18.9206 69.6471 18.9372 69.7228C18.9538 69.7985 18.9397 69.8776 18.8981 69.9429C18.8564 70.0082 18.7905 70.0542 18.7149 70.0708L0.343789 74.247L0.281089 74.2413Z" fill="#E6E7E8"/>
<path d="M58.7574 6.93677C58.6955 6.93772 58.635 6.91807 58.5855 6.88089C58.536 6.84371 58.5002 6.79112 58.4838 6.73138L54.1461 -8.43312C54.1267 -8.50647 54.1367 -8.58451 54.174 -8.65059C54.2112 -8.71667 54.2728 -8.76556 54.3456 -8.78684C54.3812 -8.79726 54.4184 -8.80049 54.4552 -8.79635C54.492 -8.79221 54.5277 -8.78078 54.56 -8.76273C54.5924 -8.74467 54.6208 -8.72036 54.6437 -8.6912C54.6666 -8.66203 54.6835 -8.62861 54.6933 -8.59286L59.0481 6.57734C59.0585 6.61293 59.0617 6.65023 59.0576 6.68708C59.0535 6.72392 59.042 6.75958 59.024 6.79197C59.006 6.82436 58.9817 6.85283 58.9525 6.87573C58.9234 6.89863 58.89 6.9155 58.8543 6.92536C58.8235 6.93737 58.7901 6.9413 58.7574 6.93677Z" fill="#E6E7E8"/>
<path d="M78.1488 2.0531H78.0861C78.0493 2.04501 78.0145 2.02971 77.9837 2.00809C77.9529 1.98646 77.9267 1.95895 77.9065 1.92712C77.8864 1.89529 77.8727 1.85979 77.8664 1.82266C77.86 1.78553 77.8611 1.7475 77.8695 1.71078L80.9361 -11.7707C80.9527 -11.8463 80.9987 -11.9123 81.0639 -11.954C81.1291 -11.9957 81.2082 -12.0098 81.2838 -11.9932C81.3594 -11.9765 81.4253 -11.9305 81.467 -11.8652C81.5086 -11.8 81.5227 -11.7208 81.5061 -11.6452L78.4281 1.83059C78.4129 1.89348 78.3772 1.94951 78.3266 1.9898C78.276 2.0301 78.2134 2.05237 78.1488 2.0531Z" fill="#E6E7E8"/>
<path d="M17.0619 46.1773H5.72459C5.649 46.1773 5.57651 46.1473 5.52306 46.0938C5.46962 46.0403 5.43959 45.9677 5.43959 45.8921C5.43959 45.8164 5.46962 45.7439 5.52306 45.6904C5.57651 45.6369 5.649 45.6068 5.72459 45.6068H17.0619C17.1375 45.6068 17.21 45.6369 17.2634 45.6904C17.3169 45.7439 17.3469 45.8164 17.3469 45.8921C17.3469 45.9677 17.3169 46.0403 17.2634 46.0938C17.21 46.1473 17.1375 46.1773 17.0619 46.1773Z" fill="#E6E7E8"/>
<path d="M109.943 18.1663L112.476 11.8428C113.532 10.5781 116.783 9.6928 121.343 16.2693C121.343 16.7751 120.921 18.5879 120.709 19.431" stroke="black" stroke-width="0.5"/>
</svg>
