<svg width="34" height="14" viewBox="0 0 34 14" fill="none" xmlns="http://www.w3.org/2000/svg">
<circle cx="7" cy="7" r="6.5" stroke="black"/>
<path d="M4.25251 6.75251C4.11583 6.8892 4.11583 7.1108 4.25251 7.24749L6.4799 9.47487C6.61658 9.61156 6.83819 9.61156 6.97487 9.47487C7.11156 9.33819 7.11156 9.11658 6.97487 8.9799L4.99497 7L6.97487 5.0201C7.11156 4.88342 7.11156 4.66181 6.97487 4.52513C6.83819 4.38844 6.61658 4.38844 6.4799 4.52513L4.25251 6.75251ZM10 6.65H4.5V7.35H10V6.65Z" fill="black"/>
<circle r="6.5" transform="matrix(-1 0 0 1 27 7)" stroke="black"/>
<path d="M29.7475 6.75251C29.8842 6.8892 29.8842 7.1108 29.7475 7.24749L27.5201 9.47487C27.3834 9.61156 27.1618 9.61156 27.0251 9.47487C26.8884 9.33819 26.8884 9.11658 27.0251 8.9799L29.005 7L27.0251 5.0201C26.8884 4.88342 26.8884 4.66181 27.0251 4.52513C27.1618 4.38844 27.3834 4.38844 27.5201 4.52513L29.7475 6.75251ZM24 6.65H29.5V7.35H24V6.65Z" fill="black"/>
</svg>
