<svg width="52" height="52" viewBox="0 0 52 52" fill="none" xmlns="http://www.w3.org/2000/svg">
<path d="M8.66667 41.1667V10.8333C8.66667 9.68406 9.12322 8.58186 9.93588 7.7692C10.7485 6.95655 11.8507 6.5 13 6.5H42.0333C42.3781 6.5 42.7088 6.63696 42.9526 6.88076C43.1964 7.12456 43.3333 7.45522 43.3333 7.8V36.2137" stroke="#231F20" stroke-width="2" stroke-linecap="round"/>
<path d="M17.3333 6.5V23.8333L22.75 20.3667L28.1667 23.8333V6.5" stroke="#231F20" stroke-width="2" stroke-linecap="round" stroke-linejoin="round"/>
<path d="M13 36.8333H43.3333M13 45.5H43.3333" stroke="#231F20" stroke-width="2" stroke-linecap="round"/>
<path d="M13 45.5C11.8507 45.5 10.7485 45.0434 9.93588 44.2308C9.12322 43.4181 8.66667 42.3159 8.66667 41.1666C8.66667 40.0174 9.12322 38.9152 9.93588 38.1025C10.7485 37.2899 11.8507 36.8333 13 36.8333" stroke="#231F20" stroke-width="2" stroke-linecap="round" stroke-linejoin="round"/>
</svg>
