<svg width="13" height="13" viewBox="0 0 13 13" fill="none" xmlns="http://www.w3.org/2000/svg">
<path d="M10.6786 3H2.32143C2.14364 3 2 3.14219 2 3.31818V9.68182C2 9.85781 2.14364 10 2.32143 10H10.6786C10.8564 10 11 9.85781 11 9.68182V3.31818C11 3.14219 10.8564 3 10.6786 3ZM10.2768 4.1017V9.28409H2.72321V4.1017L2.44598 3.88793L2.84074 3.3858L3.27065 3.7169H9.73036L10.1603 3.3858L10.555 3.88793L10.2768 4.1017V4.1017ZM9.73036 3.71591L6.5 6.2017L3.26964 3.71591L2.83973 3.3848L2.44498 3.88693L2.72221 4.10071L6.15346 6.74162C6.25214 6.81751 6.37354 6.8587 6.49849 6.8587C6.62345 6.8587 6.74485 6.81751 6.84353 6.74162L10.2768 4.1017L10.554 3.88793L10.1593 3.3858L9.73036 3.71591Z" fill="white"/>
</svg>
