<svg width="13" height="13" viewBox="0 0 13 13" fill="none" xmlns="http://www.w3.org/2000/svg">
<path d="M4.51781 12C4.36152 12 4.21164 11.9356 4.10113 11.821C3.99061 11.7064 3.92853 11.551 3.92853 11.3889C3.92853 11.2268 3.99061 11.0714 4.10113 10.9568C4.21164 10.8422 4.36152 10.7778 4.51781 10.7778C4.6741 10.7778 4.82398 10.8422 4.93449 10.9568C5.045 11.0714 5.10709 11.2268 5.10709 11.3889C5.10709 11.551 5.045 11.7064 4.93449 11.821C4.82398 11.9356 4.6741 12 4.51781 12ZM8.44634 12C8.29005 12 8.14017 11.9356 8.02965 11.821C7.91914 11.7064 7.85706 11.551 7.85706 11.3889C7.85706 11.2268 7.91914 11.0714 8.02965 10.9568C8.14017 10.8422 8.29005 10.7778 8.44634 10.7778C8.60262 10.7778 8.75251 10.8422 8.86302 10.9568C8.97353 11.0714 9.03562 11.2268 9.03562 11.3889C9.03562 11.551 8.97353 11.7064 8.86302 11.821C8.75251 11.9356 8.60262 12 8.44634 12ZM0.392853 1.81481C0.288662 1.81481 0.188738 1.77189 0.115064 1.69549C0.0413897 1.61908 0 1.51546 0 1.40741C0 1.29936 0.0413897 1.19573 0.115064 1.11933C0.188738 1.04292 0.288662 1 0.392853 1H2.35712C2.4479 1.00006 2.53587 1.03272 2.60605 1.09244C2.67624 1.15215 2.72432 1.23523 2.74211 1.32756L3.15068 3.44444H10.607C10.6656 3.44443 10.7235 3.45801 10.7764 3.48419C10.8293 3.51037 10.8758 3.54849 10.9127 3.59575C10.9495 3.64302 10.9757 3.69823 10.9893 3.75735C11.0029 3.81647 11.0035 3.87799 10.9912 3.93741L9.81268 9.64111C9.79381 9.73224 9.74537 9.81391 9.67545 9.87248C9.60553 9.93105 9.51835 9.96299 9.42847 9.96296H3.92853C3.83774 9.96291 3.74978 9.93024 3.67959 9.87053C3.60941 9.81081 3.56133 9.72773 3.54353 9.63541L2.03498 1.81481H0.392853ZM4.25067 9.14815H9.11104L10.1215 4.25926H3.30782L4.25067 9.14815Z" fill="white"/>
</svg>
