<svg width="13" height="13" viewBox="0 0 13 13" fill="none" xmlns="http://www.w3.org/2000/svg">
<path d="M2.16667 6.49998C2.16667 6.64364 2.22374 6.78141 2.32532 6.883C2.4269 6.98458 2.56468 7.04165 2.70834 7.04165H6.81959L5.57376 8.28206C5.52299 8.33242 5.48269 8.39233 5.45519 8.45833C5.42769 8.52434 5.41353 8.59514 5.41353 8.66665C5.41353 8.73815 5.42769 8.80895 5.45519 8.87496C5.48269 8.94097 5.52299 9.00087 5.57376 9.05123C5.62411 9.102 5.68402 9.1423 5.75003 9.1698C5.81603 9.1973 5.88683 9.21145 5.95834 9.21145C6.02984 9.21145 6.10064 9.1973 6.16665 9.1698C6.23266 9.1423 6.29257 9.102 6.34292 9.05123L8.50959 6.88456C8.5589 6.83305 8.59756 6.7723 8.62334 6.70581C8.67752 6.57394 8.67752 6.42602 8.62334 6.29415C8.59756 6.22766 8.5589 6.16691 8.50959 6.1154L6.34292 3.94873C6.29242 3.89823 6.23246 3.85816 6.16647 3.83083C6.10049 3.8035 6.02976 3.78943 5.95834 3.78943C5.88691 3.78943 5.81619 3.8035 5.7502 3.83083C5.68422 3.85816 5.62426 3.89823 5.57376 3.94873C5.52325 3.99923 5.48319 4.05919 5.45586 4.12518C5.42852 4.19116 5.41446 4.26189 5.41446 4.33331C5.41446 4.40474 5.42852 4.47546 5.45586 4.54145C5.48319 4.60743 5.52325 4.66739 5.57376 4.7179L6.81959 5.95831H2.70834C2.56468 5.95831 2.4269 6.01538 2.32532 6.11696C2.22374 6.21855 2.16667 6.35632 2.16667 6.49998V6.49998ZM9.20834 1.08331H3.79167C3.3607 1.08331 2.94737 1.25452 2.64262 1.55926C2.33788 1.86401 2.16667 2.27734 2.16667 2.70831V4.33331C2.16667 4.47697 2.22374 4.61475 2.32532 4.71633C2.4269 4.81791 2.56468 4.87498 2.70834 4.87498C2.852 4.87498 2.98977 4.81791 3.09135 4.71633C3.19294 4.61475 3.25001 4.47697 3.25001 4.33331V2.70831C3.25001 2.56465 3.30707 2.42688 3.40866 2.3253C3.51024 2.22371 3.64801 2.16665 3.79167 2.16665H9.20834C9.352 2.16665 9.48977 2.22371 9.59136 2.3253C9.69294 2.42688 9.75001 2.56465 9.75001 2.70831V10.2916C9.75001 10.4353 9.69294 10.5731 9.59136 10.6747C9.48977 10.7762 9.352 10.8333 9.20834 10.8333H3.79167C3.64801 10.8333 3.51024 10.7762 3.40866 10.6747C3.30707 10.5731 3.25001 10.4353 3.25001 10.2916V8.66665C3.25001 8.52299 3.19294 8.38521 3.09135 8.28363C2.98977 8.18205 2.852 8.12498 2.70834 8.12498C2.56468 8.12498 2.4269 8.18205 2.32532 8.28363C2.22374 8.38521 2.16667 8.52299 2.16667 8.66665V10.2916C2.16667 10.7226 2.33788 11.1359 2.64262 11.4407C2.94737 11.7454 3.3607 11.9166 3.79167 11.9166H9.20834C9.63932 11.9166 10.0526 11.7454 10.3574 11.4407C10.6621 11.1359 10.8333 10.7226 10.8333 10.2916V2.70831C10.8333 2.27734 10.6621 1.86401 10.3574 1.55926C10.0526 1.25452 9.63932 1.08331 9.20834 1.08331Z" fill="white"/>
</svg>
